# xmcd
#
# Track frame offsets:
#	150
#	11762
#	35537
#	48595
#	63182
#	82047
#	98260
#	109055
#	121877
#	142132
#	156562
#	173640
#	188795
#	200840
#	213730
#	230830
#
# Disc length: 3289 seconds
#
# Revision: 0
# Processed by: cddbd v1.5.2PL0 Copyright (c) Steve Scherf et al.
# Submitted via: EasyCDDAExtractor 10.5.1.1
#
DISCID=e90cd710
DTITLE=Various Artist - Capitol Nashville Country Christmas
DYEAR=1900
DGENRE=
TTITLE0=Garth Brooks - The Old Man's Back In Town
TTITLE1=John Berry - O Holy Night
TTITLE2=The Oak Ridge Boys - Thank God For Kids
TTITLE3=Tanya Tucker - Christmas To Christmas
TTITLE4=Billy Dean - White Christmas
TTITLE5=Lisa Brokop - Shake Me, I Rattle
TTITLE6=Chris LeDoux - Santa Claus Is Coming To Town
TTITLE7=Suzy Bogguss - I Heard The Bells On Christmas Day
TTITLE8=Lisa Brokop - What A Wonderful Beginning
TTITLE9=Billy Dean - Mary Did You Know
TTITLE10=Tanya Tucker - The Wonder
TTITLE11=Chris LeDoux - Twas The Night Before Christmas
TTITLE12=Suzy Bogguss - Two-Step Around The Christmas Tree
TTITLE13=The Oak Ridge Boys - Blue Christmas
TTITLE14=John Berry - The Christmas Song
TTITLE15=Garth Brooks - Go Tell It On The Mountain
EXTD=
EXTT0=
EXTT1=
EXTT2=
EXTT3=
EXTT4=
EXTT5=
EXTT6=
EXTT7=
EXTT8=
EXTT9=
EXTT10=
EXTT11=
EXTT12=
EXTT13=
EXTT14=
EXTT15=
PLAYORDER=
